# xmcd
#
# Track frame offsets:
#	150
#	16525
#	43127
#	60007
#	86282
#	103985
#	128227
#	147532
#	164955
#	189750
#
# Disc length: 2814 seconds
#
# Revision: 1
# Processed by: cddbd v1.5.1PL0 Copyright (c) Steve Scherf et al.
# Submitted via: CDex 1.50Beta5
#
DISCID=7f0afc0a
DTITLE=桑名正博 - KUWANA
DYEAR=1988
DGENRE=Pop
TTITLE0=いいヤツ
TTITLE1=10YEARS AFTER
TTITLE2=悲しみに堕ちたまま
TTITLE3=Cold As Ice
TTITLE4=Tokyo Rolling Down
TTITLE5=AGAIN
TTITLE6=ハンキー・パンキー・レディー
TTITLE7=Rock’n Roll Man
TTITLE8=ドレスのすきま
TTITLE9=遠い砂漠
EXTD=
EXTT0=
EXTT1=
EXTT2=
EXTT3=
EXTT4=
EXTT5=
EXTT6=
EXTT7=
EXTT8=
EXTT9=
PLAYORDER=
